# xmcd
#
# Track frame offsets: 
#        151
#        16922
#        33471
#        51684
#        71681
#        87622
#        105665
#        126064
#        141263
#        159074
#
# Disc length: 2293 seconds
#
# Revision: 0
# Processed by: cddbd v1.5.1PL2 Copyright (c) Steve Scherf et al.
# Submitted via: ExactAudioCopy v0.95b4
#
DISCID=8808f30a
DTITLE=ลูกแพร ไหมไทย   อุไรพร - เห็นเธอที่เยอรมัน
DYEAR=2003
DGENRE=Country
TTITLE0=เห็นเธอที่เยอรมัน
TTITLE1=ผู้หญิงอย่างเธอ
TTITLE2=เสี่ยวร้องไห้
TTITLE3=แฮ่งฮักฉองช้ำ
TTITLE4=อบต. หน้าแตก
TTITLE5=ร้องไห้ชายผ้าซิ่น
TTITLE6=คิดฮอดอย่างแฮง
TTITLE7=เสี'ายหัวใจ
TTITLE8=คนไม่มีสิทธิ์
TTITLE9=พี่กอซอ
EXTD=
EXTT0=
EXTT1=
EXTT2=
EXTT3=
EXTT4=
EXTT5=
EXTT6=
EXTT7=
EXTT8=
EXTT9=
PLAYORDER=
